<?xml version="1.0" encoding="UTF-8" standalone="no"?>
<!-- Created with Inkscape (http://www.inkscape.org/) -->

<svg
   xmlns:dc="http://purl.org/dc/elements/1.1/"
   xmlns:cc="http://creativecommons.org/ns#"
   xmlns:rdf="http://www.w3.org/1999/02/22-rdf-syntax-ns#"
   xmlns:svg="http://www.w3.org/2000/svg"
   xmlns="http://www.w3.org/2000/svg"
   xmlns:sodipodi="http://sodipodi.sourceforge.net/DTD/sodipodi-0.dtd"
   xmlns:inkscape="http://www.inkscape.org/namespaces/inkscape"
   width="128"
   height="128"
   id="svg3049"
   version="1.1"
   inkscape:version="0.48.3.1 r9886"
   sodipodi:docname="broken_heart.svg">
  <defs
     id="defs3051" />
  <sodipodi:namedview
     id="base"
     pagecolor="#ffffff"
     bordercolor="#666666"
     borderopacity="1.0"
     inkscape:pageopacity="0.0"
     inkscape:pageshadow="2"
     inkscape:zoom="4"
     inkscape:cx="67.6839"
     inkscape:cy="64.866861"
     inkscape:current-layer="layer1"
     showgrid="true"
     inkscape:document-units="px"
     inkscape:grid-bbox="true"
     gridtolerance="10"
     guidetolerance="10">
    <inkscape:grid
       type="xygrid"
       id="grid3057"
       empspacing="10"
       visible="true"
       enabled="true"
       snapvisiblegridlinesonly="true" />
  </sodipodi:namedview>
  <metadata
     id="metadata3054">
    <rdf:RDF>
      <cc:Work
         rdf:about="">
        <dc:format>image/svg+xml</dc:format>
        <dc:type
           rdf:resource="http://purl.org/dc/dcmitype/StillImage" />
        <dc:title></dc:title>
      </cc:Work>
    </rdf:RDF>
  </metadata>
  <g
     id="layer1"
     inkscape:label="Layer 1"
     inkscape:groupmode="layer"
     transform="translate(0,64)">
    <path
       style="fill:#e83109;stroke:#c60018;stroke-width:1px;stroke-linecap:butt;stroke-linejoin:miter;stroke-opacity:0.6078431;fill-opacity:0.60784316000000005"
       d="m 64,109 -1,-3 -5,-6 2,-3 -4,-10 -7,-5 -4,2 0,4 -5,-2 -3,1 -1.839844,3.832031 C 40.726562,96.1875 54.171875,108.78125 64,109 z"
       id="path3885"
       inkscape:connector-curvature="0"
       sodipodi:nodetypes="cccccccccccc"
       transform="translate(0,-64)" />
    <path
       style="fill:#e83109;stroke:#c60018;stroke-width:1px;stroke-linecap:butt;stroke-linejoin:miter;stroke-opacity:0.6078431;fill-opacity:0.60784316000000005"
       d="m 49,82 4,-14 -2,-7 -6,5 -5,5 -6,-5 -4,2 -5,-4 9,-7 -1,-12 -9,3 -6,3 -4,-1 -4,-2 C 9.5,61 24.3125,80 35.164063,90.8125 L 37,87 l 3,-1 5,2 0,-4 z"
       id="path3887"
       inkscape:connector-curvature="0"
       sodipodi:nodetypes="cccccccccccccccccccc"
       transform="translate(0,-64)" />
    <path
       style="fill:#e83109;stroke:#c60018;stroke-width:1px;stroke-linecap:butt;stroke-linejoin:miter;stroke-opacity:0.6078431;fill-opacity:0.60784316000000005"
       d="m 33,45 -5,-7 5,-2 5,2 1,-6 8,1 5.49163,-9.463979 C 47,20 34.400507,15.801126 22.539029,22.618992 14,28 10.148164,37.588051 10,48 l 4,2 4,1 6,-3 z"
       id="path3889"
       inkscape:connector-curvature="0"
       sodipodi:nodetypes="ccccccccccccc"
       transform="translate(0,-64)" />
    <path
       style="fill:#e83109;stroke:#c60018;stroke-width:1;stroke-linecap:butt;stroke-linejoin:miter;stroke-miterlimit:4.09999990000000025;stroke-opacity:0.6078431;stroke-dasharray:none;fill-opacity:0.60784316000000005"
       d="m 51,61 -2,-6 1,-4 6,2 7,6 3,-3 -4,-8 -4,-5 12,2 2,-3 -1,-6 -3.796875,-4.671875 C 65.839469,33.30546 64.867653,35.609329 64,38 62.762294,35 61.287127,29 52.46875,23.546875 L 47,33 l -8,-1 -1,6 -5,-2 -5,2 5,7 1,12 -9,7 5,4 4,-2 6,5 5,-5 z"
       id="path3899"
       inkscape:connector-curvature="0"
       sodipodi:nodetypes="ccccccccccccccccccccccccccc"
       transform="translate(0,-64)" />
    <path
       style="fill:#e83109;stroke:#c60018;stroke-width:1px;stroke-linecap:butt;stroke-linejoin:miter;stroke-opacity:0.6078431;fill-opacity:0.60784316000000005"
       d="m 56,87 3,-5 11,-2 6,-7 4,5 1,8 6,-5 5,2 -2,5 3.625,2 C 86.1875,97.562801 73.190989,108.82812 64,109 l -1,-3 -5,-6 2,-3 z"
       id="path3901"
       inkscape:connector-curvature="0"
       sodipodi:nodetypes="ccccccccccccccc"
       transform="translate(0,-64)" />
    <path
       style="fill:#e83109;stroke:#c60018;stroke-width:1px;stroke-linecap:butt;stroke-linejoin:miter;stroke-opacity:0.6078431;fill-opacity:0.60784316000000005"
       d="m 72,42 15,0 -2,8 5,5 13,-3 4,-8 -9,-4 9,-5 5,10 6,3 C 117.70978,36.261506 113.45945,29.71875 109.88399,26.15468 103.27195,19.477011 95,18.442057 88,19.265165 78.523129,20.478729 71.285755,25.234375 67.186193,31.35839 L 71,36 z"
       id="path3903"
       inkscape:connector-curvature="0"
       sodipodi:nodetypes="ccccccccccccccc"
       transform="translate(0,-64)" />
    <path
       style="fill:#e83109;stroke:#c60018;stroke-width:1px;stroke-linecap:butt;stroke-linejoin:miter;stroke-opacity:0.6078431;fill-opacity:0.60784316000000005"
       d="m 76,73 -6,7 -11,2 -3,5 -7,-5 4,-14 -2,-7 -2,-6 1,-4 6,2 7,6 3,-3 2,4 5,1 3,5 z"
       id="path3905"
       inkscape:connector-curvature="0"
       sodipodi:nodetypes="cccccccccccccccc"
       transform="translate(0,-64)" />
    <path
       style="fill:#e83109;fill-opacity:0.60784316000000005;stroke:#c60018;stroke-width:1px;stroke-linecap:butt;stroke-linejoin:miter;stroke-opacity:0.6078431"
       d="m 76,66 0,7 4,5 1,8 6,-5 9,-6 3,-7 -8,0 -7,-5 10,-4 -4,-4 -5,-5 2,-8 -15,0 -2,3 -12,-2 4,5 4,8 2,4 5,1 z"
       id="path3911"
       inkscape:connector-curvature="0"
       sodipodi:nodetypes="ccccccccccccccccccccc"
       transform="translate(0,-64)" />
    <path
       sodipodi:type="inkscape:offset"
       inkscape:radius="0"
       inkscape:original="M 107 35 L 98 40 L 107 44 L 103 52 L 90 55 L 94 59 L 84 63 L 91 68 L 99 68 L 96 75 L 87 81 L 92 83 L 90 88 L 93.59375 90 C 100.52471 83.388629 118.86719 61.898437 118 48 L 112 45 L 107 35 z "
       style="fill:#e83109;fill-opacity:0.60784314;stroke:#c60018;stroke-width:1px;stroke-linecap:butt;stroke-linejoin:miter;stroke-opacity:0.60784308"
       id="path3962"
       d="m 107,35 -9,5 9,4 -4,8 -13,3 4,4 -10,4 7,5 8,0 -3,7 -9,6 5,2 -2,5 3.59375,2 C 100.52471,83.388629 118.86719,61.898437 118,48 l -6,-3 -5,-10 z"
       transform="translate(0,-64)" />
  </g>
</svg>
