<?xml version="1.0" encoding="UTF-8" standalone="no"?>
<!-- Created with Inkscape (http://www.inkscape.org/) -->

<svg
   xmlns:dc="http://purl.org/dc/elements/1.1/"
   xmlns:cc="http://creativecommons.org/ns#"
   xmlns:rdf="http://www.w3.org/1999/02/22-rdf-syntax-ns#"
   xmlns:svg="http://www.w3.org/2000/svg"
   xmlns="http://www.w3.org/2000/svg"
   xmlns:sodipodi="http://sodipodi.sourceforge.net/DTD/sodipodi-0.dtd"
   xmlns:inkscape="http://www.inkscape.org/namespaces/inkscape"
   width="256"
   height="256"
   id="svg3049"
   version="1.1"
   inkscape:version="0.48.3.1 r9886"
   sodipodi:docname="broken_heart_inset.svg">
  <defs
     id="defs3051" />
  <sodipodi:namedview
     id="base"
     pagecolor="#ffffff"
     bordercolor="#666666"
     borderopacity="1.0"
     inkscape:pageopacity="0.0"
     inkscape:pageshadow="2"
     inkscape:zoom="4"
     inkscape:cx="109.95883"
     inkscape:cy="144.83887"
     inkscape:current-layer="layer1"
     showgrid="true"
     inkscape:document-units="px"
     inkscape:grid-bbox="true"
     gridtolerance="10"
     guidetolerance="10">
    <inkscape:grid
       type="xygrid"
       id="grid3057"
       empspacing="10"
       visible="true"
       enabled="true"
       snapvisiblegridlinesonly="true" />
  </sodipodi:namedview>
  <metadata
     id="metadata3054">
    <rdf:RDF>
      <cc:Work
         rdf:about="">
        <dc:format>image/svg+xml</dc:format>
        <dc:type
           rdf:resource="http://purl.org/dc/dcmitype/StillImage" />
        <dc:title></dc:title>
      </cc:Work>
    </rdf:RDF>
  </metadata>
  <g
     id="layer1"
     inkscape:label="Layer 1"
     inkscape:groupmode="layer"
     transform="translate(0,192)">
    <path
       style="fill:#e83109;fill-opacity:0.60784314;stroke:#c60018;stroke-width:2px;stroke-linecap:butt;stroke-linejoin:miter;stroke-opacity:0.60784308"
       d="m 92,-20.75 c 1.372478,8.281967 -0.658599,11.4468073 -8.319566,6.362173 C 79.129158,-18.645543 70.913715,-11.94602 73.9375,-7.625 88.625457,5.6692589 103.97748,20.457302 123.625,25.5 c 3.57183,-1.695132 -5.7339,-9.04055 -7.7339,-12.51375 -6.0832,-4.167731 5.89066,-8.6460357 0.005,-13.8797164 C 112.87449,-7.8276797 111.61607,-16.145227 103.86404,-19.367123 99.416708,-23.229744 97.140217,-24.72973 92,-20.75 z"
       id="path3885"
       inkscape:connector-curvature="0" />
    <path
       style="fill:#e83109;fill-opacity:0.60784314;stroke:#c60018;stroke-width:2px;stroke-linecap:butt;stroke-linejoin:miter;stroke-opacity:0.60784308"
       d="m 48.71875,-92.125 c -5.975465,2.13479 -11.471781,8.441134 -18.069463,4.849822 -3.12474,0.741488 -9.999203,-6.697683 -8.336787,-0.662322 4.046387,23.62758 19.548776,43.485778 34.321258,61.778024 4.260349,4.972577 8.534422,9.693969 13.084992,14.378226 1.083091,-5.718066 7.613133,-9.562679 12.887651,-7.318339 8.515501,6.217381 2.112872,-5.231685 9.172952,-6.018649 7.257469,-1.528332 5.791203,-10.306066 8.372977,-15.719885 1.91328,-6.95168 5.37694,-13.903721 1.55615,-20.854069 -1.46035,-5.66017 -8.293896,4.557066 -11.841444,6.637656 -4.480648,2.691209 -8.558525,13.608707 -13.454023,6.666522 -4.684848,-3.962018 -9.130875,-9.986767 -14.955253,-4.106491 -4.907203,1.245285 -8.928792,-6.362057 -13.485005,-8.572193 -0.819423,-3.759695 8.677071,-7.406168 11.861598,-11.119428 7.295842,-2.780199 6.105473,-9.286021 5.163963,-15.68259 0.919773,-8.289133 -1.793007,-11.07602 -9.319436,-6.57165 -2.320043,0.771789 -4.640087,1.543577 -6.96013,2.315366 z"
       id="path3887"
       inkscape:connector-curvature="0" />
    <path
       style="fill:#e83109;fill-opacity:0.60784314;stroke:#c60018;stroke-width:2px;stroke-linecap:butt;stroke-linejoin:miter;stroke-opacity:0.60784308"
       d="m 70.625,-150 c -18.486999,0.19555 -36.00063,11.49307 -43.00334,28.63102 -3.652851,8.23796 -5.342772,17.17865 -5.59041,26.15023 5.833529,2.954382 13.182035,7.467092 19.116563,2.410468 6.731698,-3.932991 14.3951,-5.619627 21.664687,-8.254218 -2.433628,-4.57488 -9.095339,-10.37753 -8.977773,-14.21514 5.860731,-1.69095 11.703886,-7.11832 17.560256,-2.71567 7.197494,4.71154 0.76827,-12.67358 7.847262,-9.8824 5.623737,-0.43841 14.219278,5.10462 16.228033,-2.60978 0.853588,-3.94583 8.667512,-10.00648 5.123472,-12.63951 -9.220749,-4.81148 -19.58599,-7.18405 -29.96875,-6.875 z"
       id="path3889"
       inkscape:connector-curvature="0" />
    <path
       style="fill:#e83109;fill-opacity:0.60784314;stroke:#c60018;stroke-width:2;stroke-linecap:butt;stroke-linejoin:miter;stroke-miterlimit:4.0999999;stroke-opacity:0.60784308;stroke-dasharray:none"
       d="m 95.71875,-123 c -3.974121,2.51011 -10.966028,-1.01315 -16.0625,-0.75 -1.836072,4.07511 0.630205,15.7927 -6.264068,10.85313 -3.391517,-3.45379 -16.44292,-3.38218 -12.554113,2.24389 3.847752,5.35481 8.781269,10.32116 7.743249,17.47255 0.506235,6.028714 0.997431,12.058718 1.512432,18.08668 -5.608561,4.382699 -11.23028,8.748577 -16.84375,13.125 4.471835,5.579993 9.493823,6.0315 15.03125,1.59375 4.537931,1.979842 9.459697,12.049769 13.71507,7.56618 5.357114,-5.862003 11.560441,-10.797895 17.65993,-15.84743 -1.767237,-5.853425 -5.340925,-11.6264 -2.138536,-17.664605 -0.140995,-8.058919 8.148186,-0.72307 12.594116,-0.423117 6.35968,2.081796 10.39387,8.257857 15.79442,12.025222 7.28715,-3.794026 -0.74392,-10.080624 -2.14752,-15.288802 -3.14265,-6.281692 -8.5139,-11.135578 -12.57123,-16.836198 9.287,1.57984 18.58366,3.10224 27.875,4.65625 4.64815,-4.35398 2.06853,-11.71402 -0.20164,-16.51857 -2.86313,-5.4761 -5.47485,-5.60188 -6.98586,0.23732 -2.00117,3.62549 -3.6274,14.94558 -5.64901,5.44324 -3.46305,-11.08377 -10.61128,-20.92713 -20.63224,-27.06824 -3.29167,5.69792 -6.583333,11.39583 -9.875,17.09375 z"
       id="path3899"
       inkscape:connector-curvature="0" />
    <path
       style="fill:#e83109;fill-opacity:0.60784314;stroke:#c60018;stroke-width:2px;stroke-linecap:butt;stroke-linejoin:miter;stroke-opacity:0.60784308"
       d="m 141.53125,-28.6875 c -6.96892,2.838219 -16.23404,2.048064 -22.79622,5.357211 -5.18255,5.205661 -4.30187,10.898828 -0.80237,16.8025559 1.23468,5.0768521 6.99763,10.604639 1.50985,14.9843021 -1.12198,4.546812 6.43405,8.443387 8.46374,12.918431 -0.17282,5.582835 3.96,4.747922 7.6875,3.34375 18.90032,-6.500488 34.22081,-20.7161914 48.375,-34.25 -8.47969,-1.722944 -5.38956,-7.600364 -2.5625,-13.375 -6.19099,-5.091986 -10.79324,-0.164429 -15.47973,4.231869 -6.17241,7.935099 -6.31303,0.469205 -6.79649,-6.021348 0.33384,-6.531215 -2.68451,-11.647425 -7.16128,-16.148021 -3.47917,4.052083 -6.95833,8.104167 -10.4375,12.15625 z"
       id="path3901"
       inkscape:connector-curvature="0" />
    <path
       style="fill:#e83109;fill-opacity:0.60784314;stroke:#c60018;stroke-width:2px;stroke-linecap:butt;stroke-linejoin:miter;stroke-opacity:0.60784308"
       d="m 181.4375,-149.875 c -17.05531,0.62346 -34.42971,8.34009 -44.5625,22.5 4.10983,4.68607 8.60041,9.2168 8.24116,15.93657 0.27674,6.9437 10.70198,1.91345 15.57134,3.43843 4.45697,1.17223 15.01678,-2.4205 15.38993,1.94029 -0.25169,5.4703 -5.34114,12.282502 -2.44447,16.880174 4.05809,5.824764 9.06872,8.329975 15.76214,4.970803 5.26023,-2.399353 13.84644,-0.573142 16.57154,-6.193299 2.70856,-5.591881 8.58637,-12.320458 -1.08156,-13.473338 -2.56537,-2.50799 -16.76891,-4.5074 -10.72915,-7.39008 6.89834,-3.82386 13.78585,-7.66726 20.68782,-11.48455 4.01773,7.07652 6.80261,15.36042 11.55001,21.69855 5.37591,3.63433 9.34382,4.865569 6.79374,-2.9798 -2.03814,-20.32917 -16.11688,-40.2446 -36.90625,-44.5625 -4.86421,-1.13869 -9.83475,-1.50438 -14.84375,-1.28125 z"
       id="path3903"
       inkscape:connector-curvature="0" />
    <path
       style="fill:#e83109;fill-opacity:0.60784314;stroke:#c60018;stroke-width:2px;stroke-linecap:butt;stroke-linejoin:miter;stroke-opacity:0.60784308"
       d="m 100.09375,-80.09375 c 2.86105,8.775404 6.11836,17.688833 7.84375,26.65625 -2.54167,8.885417 -5.08333,17.770833 -7.625,26.65625 4.68787,1.848879 11.18579,12.340581 13.65897,3.614439 2.29624,-7.519107 11.42005,-5.185807 17.45766,-7.313464 7.01309,0.481118 10.75242,-4.747888 14.64746,-9.705309 6.02194,-4.003031 3.40799,-11.207526 3.92341,-17.251916 -2.69706,-5.805451 -5.96354,-10.804016 -13.09258,-10.329223 -4.94266,-3.103713 -5.53516,-10.093592 -10.81367,-1.514527 -7.58759,-5.801153 -13.68832,-14.208772 -23.66315,-15.78355 -2.04217,-1.680634 -1.50734,4.200505 -2.33685,4.97105 z"
       id="path3905"
       inkscape:connector-curvature="0" />
    <path
       style="fill:#e83109;fill-opacity:0.60784314;stroke:#c60018;stroke-width:2px;stroke-linecap:butt;stroke-linejoin:miter;stroke-opacity:0.60784308"
       d="m 141.65625,-98.875 c -4.44837,2.1279 -11.41871,-1.58527 -16.79789,-1.61029 -8.73457,-2.6237 2.58225,5.193234 2.71174,9.156749 3.75875,6.353325 6.10972,14.549772 10.75423,19.743407 6.67699,0.02793 11.27628,3.079202 13.51039,9.413827 5.54518,6.414803 -1.80557,16.774224 5.91723,22.165993 5.73616,4.432448 4.66345,11.75348 5.7793,18.130314 8.10583,-8.034369 18.85786,-13.135744 27.26859,-20.388034 3.53681,-6.421102 5.96122,-12.108414 -3.83109,-9.736966 -8.2729,1.4301 -13.42726,-6.873204 -20.125,-10.375 -6.79893,-3.769436 7.55346,-4.971909 10.62205,-7.547653 9.78024,-1.331492 4.85691,-5.685805 -0.28626,-10.085311 -2.46139,-4.266499 -10.93316,-6.860506 -8.63197,-12.432321 1.42277,-6.033781 5.76991,-14.350855 -4.11007,-11.559715 -6.45833,0 -12.91667,0 -19.375,0 -1.13542,1.70833 -2.27083,3.41667 -3.40625,5.125 z"
       id="path3911"
       inkscape:connector-curvature="0" />
    <path
       style="fill:#e83109;fill-opacity:0.60784314;stroke:#c60018;stroke-width:2px;stroke-linecap:butt;stroke-linejoin:miter;stroke-opacity:0.60784308"
       d="m 209.625,-115.40625 c -3.3049,0.25563 -5.70554,2.8792 -7.625,5.34375 4.43545,2.82456 9.86094,8.53751 15.46875,5.71875 4.0572,-4.61696 -2.79872,-11.76072 -7.84375,-11.0625 z m 7.6875,13.0625 c -3.34359,2.784065 -3.25372,8.445583 -6.375,11.84375 -4.51805,7.573251 -13.8314,10.638026 -22.28125,10.03125 1.92817,4.271779 2.77651,11.02658 -3.0625,12.625 -3.22623,2.31706 -10.45192,0.308684 -9.28125,5.78125 2.10514,6.787576 11.03567,5.965551 16.75,6.25 3.55047,0.374124 10.86305,-2.117847 6.5625,3.75 -3.36473,9.164783 -8.88079,18.37275 -18.54279,21.816529 -6.8169,2.947539 -0.0644,3.3045 3.69904,3.245971 2.93207,1.523375 -0.14999,6.264269 -0.21875,8.6875 -1.70135,3.003975 2.13769,6.057319 4.4375,3.3125 15.16638,-16.129426 30.01548,-33.570844 38.96875,-54 3.41911,-7.768768 5.44822,-16.060228 6.40625,-24.5 -7.47779,1.520558 -10.64358,-8.39412 -17.0625,-8.84375 z"
       id="path3131"
       inkscape:connector-curvature="0" />
  </g>
</svg>
