<?xml version="1.0" encoding="UTF-8" standalone="no"?>
<!-- Created with Inkscape (http://www.inkscape.org/) -->

<svg
   xmlns:dc="http://purl.org/dc/elements/1.1/"
   xmlns:cc="http://creativecommons.org/ns#"
   xmlns:rdf="http://www.w3.org/1999/02/22-rdf-syntax-ns#"
   xmlns:svg="http://www.w3.org/2000/svg"
   xmlns="http://www.w3.org/2000/svg"
   xmlns:sodipodi="http://sodipodi.sourceforge.net/DTD/sodipodi-0.dtd"
   xmlns:inkscape="http://www.inkscape.org/namespaces/inkscape"
   width="48"
   height="64"
   id="svg2"
   version="1.1"
   inkscape:version="0.48.3.1 r9886"
   sodipodi:docname="ciccia.svg"
   inkscape:export-filename="/home/francesco/Programming/Python/games/ppp/resources/sprites/ciccia/ciccia.png"
   inkscape:export-xdpi="90"
   inkscape:export-ydpi="90">
  <defs
     id="defs4" />
  <sodipodi:namedview
     id="base"
     pagecolor="#ffffff"
     bordercolor="#666666"
     borderopacity="1.0"
     inkscape:pageopacity="0.0"
     inkscape:pageshadow="2"
     inkscape:zoom="4.8880005"
     inkscape:cx="74.836884"
     inkscape:cy="50.837601"
     inkscape:document-units="px"
     inkscape:current-layer="layer1"
     showgrid="true"
     gridtolerance="10"
     objecttolerance="10"
     guidetolerance="10">
    <inkscape:grid
       type="xygrid"
       id="grid2985"
       empspacing="10"
       visible="true"
       enabled="true"
       snapvisiblegridlinesonly="true"
       color="#6c6cff"
       opacity="0.1254902" />
  </sodipodi:namedview>
  <metadata
     id="metadata7">
    <rdf:RDF>
      <cc:Work
         rdf:about="">
        <dc:format>image/svg+xml</dc:format>
        <dc:type
           rdf:resource="http://purl.org/dc/dcmitype/StillImage" />
        <dc:title></dc:title>
      </cc:Work>
    </rdf:RDF>
  </metadata>
  <g
     inkscape:label="Layer 1"
     inkscape:groupmode="layer"
     id="layer1"
     transform="translate(0,-988.36218)">
    <path
       style="fill:#597a14;fill-opacity:1;stroke:#004502;stroke-width:1px;stroke-linecap:butt;stroke-linejoin:miter;stroke-opacity:1"
       d="m 16.363341,1034.9831 c 0,0 2.189739,-4.4482 5.007403,-4.2017 2.817664,0.2465 4.579793,3.125 5.908345,5.4855 1.32863,2.3605 3.231097,7.7321 2.720911,9.4656 -0.56465,1.9186 -2.715474,2.2785 -2.715474,2.2785 z"
       id="path3791-5"
       inkscape:connector-curvature="0"
       sodipodi:nodetypes="cszscc" />
    <path
       sodipodi:type="arc"
       style="fill:#83b31d;fill-opacity:1;stroke:#004502;stroke-width:1.5;stroke-linecap:butt;stroke-linejoin:miter;stroke-miterlimit:4;stroke-opacity:1;stroke-dasharray:none"
       id="path2991"
       sodipodi:cx="25"
       sodipodi:cy="39"
       sodipodi:rx="18"
       sodipodi:ry="18"
       d="M 43,39 A 18,18 0 1 1 7,39 18,18 0 1 1 43,39 z"
       transform="translate(0.4866071,983.36216)"
       inkscape:export-xdpi="90"
       inkscape:export-ydpi="90" />
    <path
       style="fill:#83b31d;fill-opacity:1;stroke:#004502;stroke-width:1.5;stroke-linecap:butt;stroke-linejoin:miter;stroke-miterlimit:4;stroke-opacity:1;stroke-dasharray:none"
       d="M 40.545552,1012.282 42,1005.3622 l -6.458561,1.638 -3.44967,-9.50107 -6.228518,6.84027 -8.295259,-7.86978 -2.822529,10.67868 -7.5175411,-2.7362 1.962302,9.2277 -6.0665437,2.0486 4.2700752,5.8109 -4.5291786,3.6724 5.2961356,2.9919 C 4.4088441,1003.3861 31.749749,998.43882 40.545552,1012.282 z"
       id="path3761"
       inkscape:connector-curvature="0"
       sodipodi:nodetypes="cccccccccccccc" />
    <path
       sodipodi:type="arc"
       style="fill:#000000;fill-opacity:1;stroke:none"
       id="path3763"
       sodipodi:cx="27"
       sodipodi:cy="32.5"
       sodipodi:rx="2"
       sodipodi:ry="3.5"
       d="m 29,32.5 a 2,3.5 0 1 1 -4,0 2,3.5 0 1 1 4,0 z"
       transform="translate(3,985.36218)" />
    <path
       transform="translate(9.6691659,986.36218)"
       sodipodi:type="arc"
       style="fill:#000000;fill-opacity:1;stroke:none"
       id="path3763-1"
       sodipodi:cx="27"
       sodipodi:cy="32.5"
       sodipodi:rx="2"
       sodipodi:ry="3.5"
       d="m 29,32.5 a 2,3.5 0 1 1 -4,0 2,3.5 0 1 1 4,0 z" />
    <path
       style="fill:#ffffff;fill-opacity:1;stroke:none"
       d="m 27.190088,1024.6513 c 0,0 -0.737756,3.4712 -1.543947,4.2419 1.879385,0.6841 4.140999,-2.204 4.353859,-3.1907 z"
       id="path3787"
       inkscape:connector-curvature="0"
       sodipodi:nodetypes="cccc" />
    <path
       style="fill:none;stroke:#004502;stroke-width:1.00814092px;stroke-linecap:butt;stroke-linejoin:miter;stroke-opacity:1"
       d="m 25.480413,1023.5009 13.155697,4.7883"
       id="path3785"
       inkscape:connector-curvature="0"
       sodipodi:nodetypes="cc" />
    <path
       style="fill:#83b31d;fill-opacity:1;stroke:#004502;stroke-width:1px;stroke-linecap:butt;stroke-linejoin:miter;stroke-opacity:1"
       d="m 13.334614,1036.5639 c 0,0 2.189694,-4.4482 5.007393,-4.2017 2.8177,0.2465 4.579823,3.125 5.908303,5.4856 1.328691,2.3604 3.231132,7.732 2.720961,9.4655 -0.56464,1.9186 -2.715521,2.2786 -2.715521,2.2786 z"
       id="path3791"
       inkscape:connector-curvature="0"
       sodipodi:nodetypes="cszscc" />
    <path
       sodipodi:type="arc"
       style="fill:#597a14;fill-opacity:1;stroke:#004502;stroke-width:1;stroke-linecap:butt;stroke-linejoin:miter;stroke-miterlimit:4;stroke-opacity:1;stroke-dasharray:none"
       id="path4156"
       sodipodi:cx="16"
       sodipodi:cy="48"
       sodipodi:rx="4"
       sodipodi:ry="4"
       d="m 20,48 a 4,4 0 1 1 -8,0 4,4 0 1 1 8,0 z"
       transform="translate(3,976.36218)" />
    <path
       style="fill:none;stroke:#000000;stroke-width:1px;stroke-linecap:butt;stroke-linejoin:miter;stroke-opacity:1"
       d="M 33,27 29,23"
       id="path3856"
       inkscape:connector-curvature="0"
       transform="translate(0,988.36218)" />
    <path
       style="fill:none;stroke:#000000;stroke-width:1px;stroke-linecap:butt;stroke-linejoin:miter;stroke-opacity:1"
       d="m 34,27 4.547932,-3.198909"
       id="path3858"
       inkscape:connector-curvature="0"
       transform="translate(0,988.36218)"
       sodipodi:nodetypes="cc" />
  </g>
</svg>
