<?xml version="1.0" encoding="UTF-8" standalone="no"?>
<!-- Created with Inkscape (http://www.inkscape.org/) -->

<svg
   xmlns:dc="http://purl.org/dc/elements/1.1/"
   xmlns:cc="http://creativecommons.org/ns#"
   xmlns:rdf="http://www.w3.org/1999/02/22-rdf-syntax-ns#"
   xmlns:svg="http://www.w3.org/2000/svg"
   xmlns="http://www.w3.org/2000/svg"
   xmlns:xlink="http://www.w3.org/1999/xlink"
   xmlns:sodipodi="http://sodipodi.sourceforge.net/DTD/sodipodi-0.dtd"
   xmlns:inkscape="http://www.inkscape.org/namespaces/inkscape"
   width="48"
   height="64"
   id="svg2"
   version="1.1"
   inkscape:version="0.48.3.1 r9886"
   sodipodi:docname="io_run1.svg"
   inkscape:export-filename="/home/francesco/Programming/Python/games/ppp/resources/sprites/io_run1.png"
   inkscape:export-xdpi="90"
   inkscape:export-ydpi="90">
  <defs
     id="defs4">
    <linearGradient
       id="linearGradient3816">
      <stop
         style="stop-color:#eac381;stop-opacity:1;"
         offset="0"
         id="stop3818" />
      <stop
         style="stop-color:#e1a94a;stop-opacity:1;"
         offset="1"
         id="stop3820" />
    </linearGradient>
    <radialGradient
       inkscape:collect="always"
       xlink:href="#linearGradient3816"
       id="radialGradient3824"
       cx="36.391808"
       cy="27.131321"
       fx="36.391808"
       fy="27.131321"
       r="19.5"
       gradientUnits="userSpaceOnUse"
       gradientTransform="matrix(0,0.82051285,-0.82051292,0,60.2616,28.140054)" />
  </defs>
  <sodipodi:namedview
     id="base"
     pagecolor="#ffffff"
     bordercolor="#666666"
     borderopacity="1.0"
     inkscape:pageopacity="0.0"
     inkscape:pageshadow="2"
     inkscape:zoom="5.6"
     inkscape:cx="29.745576"
     inkscape:cy="24.714178"
     inkscape:document-units="px"
     inkscape:current-layer="layer3"
     showgrid="false"
     inkscape:showpageshadow="false">
    <inkscape:grid
       type="xygrid"
       id="grid2985"
       empspacing="10"
       visible="true"
       enabled="true"
       snapvisiblegridlinesonly="true" />
  </sodipodi:namedview>
  <metadata
     id="metadata7">
    <rdf:RDF>
      <cc:Work
         rdf:about="">
        <dc:format>image/svg+xml</dc:format>
        <dc:type
           rdf:resource="http://purl.org/dc/dcmitype/StillImage" />
        <dc:title></dc:title>
      </cc:Work>
    </rdf:RDF>
  </metadata>
  <g
     inkscape:groupmode="layer"
     id="layer3"
     inkscape:label="bottom">
    <path
       style="fill:#ad4300;fill-opacity:1;stroke:#000000;stroke-width:1px;stroke-linecap:butt;stroke-linejoin:miter;stroke-opacity:1"
       d="M 24.000001,63 C 27.000001,65 38,64 38,64 c 2,0 4,-4 0,-6 -2.828427,-1.414214 -11.212105,-4.417928 -13.999999,-2 -2.787894,2.417928 -3,5 0,7 z"
       id="path3834-8"
       inkscape:connector-curvature="0"
       sodipodi:nodetypes="zcszz" />
  </g>
  <g
     inkscape:label="Layer 1"
     inkscape:groupmode="layer"
     id="layer1"
     transform="translate(0,-988.36218)">
    <path
       sodipodi:type="arc"
       style="fill:url(#radialGradient3824);stroke:#000000;stroke-width:1;stroke-miterlimit:4;stroke-opacity:1;stroke-dasharray:none;fill-opacity:1.0"
       id="path2987"
       sodipodi:cx="24"
       sodipodi:cy="45"
       sodipodi:rx="19"
       sodipodi:ry="19"
       d="M 43,45 A 19,19 0 1 1 5,45 19,19 0 1 1 43,45 z"
       transform="translate(0,986.36218)" />
  </g>
  <g
     inkscape:groupmode="layer"
     id="layer2"
     inkscape:label="over">
    <path
       sodipodi:type="arc"
       style="fill:#000000;fill-opacity:1;stroke:none;stroke-width:1;stroke-miterlimit:4;stroke-opacity:1;stroke-dasharray:none"
       id="path3761"
       sodipodi:cx="25"
       sodipodi:cy="38"
       sodipodi:rx="3"
       sodipodi:ry="6"
       d="m 28,38 a 3,6 0 1 1 -6,0 3,6 0 1 1 6,0 z" />
    <path
       sodipodi:type="arc"
       style="fill:#000000;fill-opacity:1;stroke:none;stroke-width:1;stroke-miterlimit:4;stroke-opacity:1;stroke-dasharray:none"
       id="path3763"
       sodipodi:cx="33"
       sodipodi:cy="38"
       sodipodi:rx="3"
       sodipodi:ry="6"
       d="m 36,38 a 3,6 0 1 1 -6,0 3,6 0 1 1 6,0 z" />
    <path
       style="fill:#f1813b;fill-opacity:1;stroke:#000000;stroke-width:1px;stroke-linecap:butt;stroke-linejoin:miter;stroke-opacity:1"
       d="M 4.2818783,59.019257 C 5.0809166,60.635283 7.2936706,62.4375 10,64 c 3,0 8,0 8,0 3,0 3,-4 2,-5 -1.581139,-1.581139 -3.840209,-0.988372 -5.950581,-2.92902 -2.110372,-1.940648 -4.4558655,-3.463921 -6.267541,-3.113901 -1.8116755,0.35002 -4.2990381,4.446153 -3.4999997,6.062178 z"
       id="path3834"
       inkscape:connector-curvature="0"
       sodipodi:nodetypes="zccsszz" />
  </g>
</svg>
