<?xml version="1.0" encoding="UTF-8" standalone="no"?>
<!-- Created with Inkscape (http://www.inkscape.org/) -->

<svg
   xmlns:dc="http://purl.org/dc/elements/1.1/"
   xmlns:cc="http://creativecommons.org/ns#"
   xmlns:rdf="http://www.w3.org/1999/02/22-rdf-syntax-ns#"
   xmlns:svg="http://www.w3.org/2000/svg"
   xmlns="http://www.w3.org/2000/svg"
   xmlns:xlink="http://www.w3.org/1999/xlink"
   xmlns:sodipodi="http://sodipodi.sourceforge.net/DTD/sodipodi-0.dtd"
   xmlns:inkscape="http://www.inkscape.org/namespaces/inkscape"
   width="48"
   height="64"
   id="svg2"
   version="1.1"
   inkscape:version="0.48.3.1 r9886"
   sodipodi:docname="io.svg"
   inkscape:export-filename="/home/francesco/Programming/Python/games/ppp/resources/sprites/io.png"
   inkscape:export-xdpi="90"
   inkscape:export-ydpi="90">
  <defs
     id="defs4">
    <linearGradient
       id="linearGradient3816">
      <stop
         style="stop-color:#eac381;stop-opacity:1;"
         offset="0"
         id="stop3818" />
      <stop
         style="stop-color:#e1a94a;stop-opacity:1;"
         offset="1"
         id="stop3820" />
    </linearGradient>
    <radialGradient
       inkscape:collect="always"
       xlink:href="#linearGradient3816"
       id="radialGradient3824"
       cx="36.391808"
       cy="27.131321"
       fx="36.391808"
       fy="27.131321"
       r="19.5"
       gradientUnits="userSpaceOnUse"
       gradientTransform="matrix(0,0.82051285,-0.82051292,0,60.2616,28.140054)" />
  </defs>
  <sodipodi:namedview
     id="base"
     pagecolor="#ffffff"
     bordercolor="#666666"
     borderopacity="1.0"
     inkscape:pageopacity="0.0"
     inkscape:pageshadow="2"
     inkscape:zoom="2.8"
     inkscape:cx="30.817965"
     inkscape:cy="45.463671"
     inkscape:document-units="px"
     inkscape:current-layer="layer3"
     showgrid="false"
     inkscape:showpageshadow="false">
    <inkscape:grid
       type="xygrid"
       id="grid2985"
       empspacing="10"
       visible="true"
       enabled="true"
       snapvisiblegridlinesonly="true" />
  </sodipodi:namedview>
  <metadata
     id="metadata7">
    <rdf:RDF>
      <cc:Work
         rdf:about="">
        <dc:format>image/svg+xml</dc:format>
        <dc:type
           rdf:resource="http://purl.org/dc/dcmitype/StillImage" />
        <dc:title></dc:title>
      </cc:Work>
    </rdf:RDF>
  </metadata>
  <g
     inkscape:groupmode="layer"
     id="layer3"
     inkscape:label="bottom">
    <path
       style="fill:#ad4300;fill-opacity:1;stroke:#000000;stroke-width:1px;stroke-linecap:butt;stroke-linejoin:miter;stroke-opacity:1"
       d="m 7.5064365,61.075326 c 1.4999999,1 2.9165605,2.63896 6.0415605,2.63896 3.124999,0 9.157995,-0.123731 9.157995,-0.123731 2,0 3.936865,-4.126269 -0.06313,-6.126269 -2.828427,-1.414214 -11.14897,-5.806888 -13.9368644,-3.38896 -2.787894,2.417928 -2.6995561,6 -1.1995561,7 z"
       id="path3834-8"
       inkscape:connector-curvature="0"
       sodipodi:nodetypes="zscszz" />
  </g>
  <g
     inkscape:label="Layer 1"
     inkscape:groupmode="layer"
     id="layer1"
     transform="translate(0,-988.36218)">
    <path
       sodipodi:type="arc"
       style="fill:url(#radialGradient3824);stroke:#000000;stroke-width:1;stroke-miterlimit:4;stroke-opacity:1;stroke-dasharray:none;fill-opacity:1.0"
       id="path2987"
       sodipodi:cx="24"
       sodipodi:cy="45"
       sodipodi:rx="19"
       sodipodi:ry="19"
       d="M 43,45 C 43,55.49341 34.49341,64 24,64 13.50659,64 5,55.49341 5,45 5,34.50659 13.50659,26 24,26 c 10.49341,0 19,8.50659 19,19 z"
       transform="translate(0,986.36218)" />
  </g>
  <g
     inkscape:groupmode="layer"
     id="layer2"
     inkscape:label="over">
    <path
       sodipodi:type="arc"
       style="fill:#000000;fill-opacity:1;stroke:none;stroke-width:1;stroke-miterlimit:4;stroke-opacity:1;stroke-dasharray:none"
       id="path3761"
       sodipodi:cx="25"
       sodipodi:cy="38"
       sodipodi:rx="3"
       sodipodi:ry="6"
       d="m 28,38 a 3,6 0 1 1 -6,0 3,6 0 1 1 6,0 z" />
    <path
       sodipodi:type="arc"
       style="fill:#000000;fill-opacity:1;stroke:none;stroke-width:1;stroke-miterlimit:4;stroke-opacity:1;stroke-dasharray:none"
       id="path3763"
       sodipodi:cx="33"
       sodipodi:cy="38"
       sodipodi:rx="3"
       sodipodi:ry="6"
       d="m 36,38 a 3,6 0 1 1 -6,0 3,6 0 1 1 6,0 z" />
    <path
       style="fill:#f1813b;fill-opacity:1;stroke:#000000;stroke-width:1px;stroke-linecap:butt;stroke-linejoin:miter;stroke-opacity:1"
       d="m 31.852695,63.830925 c 3.428571,0 5.958628,-0.05524 7.683371,-1.334303 1.724743,-1.27906 3.506033,-2.492077 4.533516,-4.098078 1.027483,-1.606001 0.493027,-5.635327 -3.856726,-4.596266 -1.53787,0.367363 -5.294001,1.398063 -8.187979,2.262635 -4.092193,1.222536 -4.986522,4.602017 -5.161504,5.382872 -0.174982,0.780855 1.560751,2.38314 4.989322,2.38314 z"
       id="path3834-8-4"
       inkscape:connector-curvature="0"
       sodipodi:nodetypes="zzzsszz" />
  </g>
</svg>
