<?xml version="1.0" encoding="UTF-8" standalone="no"?>
<!-- Created with Inkscape (http://www.inkscape.org/) -->

<svg
   xmlns:dc="http://purl.org/dc/elements/1.1/"
   xmlns:cc="http://creativecommons.org/ns#"
   xmlns:rdf="http://www.w3.org/1999/02/22-rdf-syntax-ns#"
   xmlns:svg="http://www.w3.org/2000/svg"
   xmlns="http://www.w3.org/2000/svg"
   xmlns:sodipodi="http://sodipodi.sourceforge.net/DTD/sodipodi-0.dtd"
   xmlns:inkscape="http://www.inkscape.org/namespaces/inkscape"
   width="64"
   height="64"
   id="svg2"
   version="1.1"
   inkscape:version="0.48.3.1 r9886"
   sodipodi:docname="basic.svg">
  <defs
     id="defs4" />
  <sodipodi:namedview
     id="base"
     pagecolor="#ffffff"
     bordercolor="#666666"
     borderopacity="1.0"
     inkscape:pageopacity="0.0"
     inkscape:pageshadow="2"
     inkscape:zoom="1.5367187"
     inkscape:cx="53.383445"
     inkscape:cy="131.83029"
     inkscape:document-units="px"
     inkscape:current-layer="layer1"
     showgrid="true"
     showguides="true"
     inkscape:guide-bbox="true"
     gridtolerance="10">
    <inkscape:grid
       type="xygrid"
       id="grid2985"
       empspacing="10"
       visible="true"
       enabled="true"
       snapvisiblegridlinesonly="true" />
    <sodipodi:guide
       orientation="1,0"
       position="8,25"
       id="guide2987" />
    <sodipodi:guide
       orientation="1,0"
       position="56,21"
       id="guide2989" />
  </sodipodi:namedview>
  <metadata
     id="metadata7">
    <rdf:RDF>
      <cc:Work
         rdf:about="">
        <dc:format>image/svg+xml</dc:format>
        <dc:type
           rdf:resource="http://purl.org/dc/dcmitype/StillImage" />
        <dc:title></dc:title>
      </cc:Work>
    </rdf:RDF>
  </metadata>
  <g
     inkscape:label="Layer 1"
     inkscape:groupmode="layer"
     id="layer1"
     transform="translate(0,-988.36218)">
    <path
       style="fill:#fffe92;fill-opacity:1;stroke:#fce64c;stroke-width:1.20000005px;stroke-linecap:butt;stroke-linejoin:miter;stroke-opacity:1"
       d="m 12.849817,1051.7871 c 0,0 -9.6,-8.4 -9.6,-15.6 3.5999998,6 8.4,7.2 8.4,7.2 -1.2,-2.4 -1.9536602,-6.542 -1.2,-8.4 1.815838,2.8368 3.00003,5.8 6,8.4 0.689975,-2.6629 2.137852,-5.4769 3.6,-8.4 0.440094,2.8 -0.03096,5.5999 3.6,8.4 l 3.6,-4.8 c 0.08686,3.616 2.354929,7.2226 4.8,9.6 2.4,-2.4 4.8,-6 4.8,-9.6 l 3.6,4.8 c 3.6,-3.0144 3.6,-8.4 3.6,-8.4 0,0 3.6,6 3.6,8.4 1.8,-1.2 4.2,-5.55 6,-8.4 0.663142,1.7899 -1.2,8.4 -1.2,8.4 0,0 4.8,-1.2 8.4,-7.2 0,7.2 -8.4,15.6 -8.4,15.6 z"
       id="path2991"
       inkscape:connector-curvature="0"
       sodipodi:nodetypes="cccccccccccccccccc" />
  </g>
</svg>
