<?xml version="1.0" encoding="UTF-8" standalone="no"?>
<!-- Created with Inkscape (http://www.inkscape.org/) -->

<svg
   xmlns:dc="http://purl.org/dc/elements/1.1/"
   xmlns:cc="http://creativecommons.org/ns#"
   xmlns:rdf="http://www.w3.org/1999/02/22-rdf-syntax-ns#"
   xmlns:svg="http://www.w3.org/2000/svg"
   xmlns="http://www.w3.org/2000/svg"
   xmlns:sodipodi="http://sodipodi.sourceforge.net/DTD/sodipodi-0.dtd"
   xmlns:inkscape="http://www.inkscape.org/namespaces/inkscape"
   width="64"
   height="64"
   id="svg2"
   version="1.1"
   inkscape:version="0.48.3.1 r9886"
   sodipodi:docname="basic_2.svg">
  <defs
     id="defs4" />
  <sodipodi:namedview
     id="base"
     pagecolor="#ffffff"
     bordercolor="#666666"
     borderopacity="1.0"
     inkscape:pageopacity="0.0"
     inkscape:pageshadow="2"
     inkscape:zoom="19.083838"
     inkscape:cx="4.9791645"
     inkscape:cy="7.2649984"
     inkscape:document-units="px"
     inkscape:current-layer="layer1"
     showgrid="true"
     showguides="true"
     inkscape:guide-bbox="true"
     gridtolerance="10">
    <inkscape:grid
       type="xygrid"
       id="grid2985"
       empspacing="10"
       visible="true"
       enabled="true"
       snapvisiblegridlinesonly="true" />
    <sodipodi:guide
       orientation="1,0"
       position="8,25"
       id="guide2987" />
    <sodipodi:guide
       orientation="1,0"
       position="56,21"
       id="guide2989" />
  </sodipodi:namedview>
  <metadata
     id="metadata7">
    <rdf:RDF>
      <cc:Work
         rdf:about="">
        <dc:format>image/svg+xml</dc:format>
        <dc:type
           rdf:resource="http://purl.org/dc/dcmitype/StillImage" />
        <dc:title></dc:title>
      </cc:Work>
    </rdf:RDF>
  </metadata>
  <g
     inkscape:label="Layer 1"
     inkscape:groupmode="layer"
     id="layer1"
     transform="translate(0,-988.36218)">
    <path
       style="fill:#fffe92;fill-opacity:1;stroke:#fce64c;stroke-width:1.20000005px;stroke-linecap:butt;stroke-linejoin:miter;stroke-opacity:1"
       d="m 27.817486,1051.718 -19.2610072,0.044 c 0,0 -7.85778087,-7.6796 -7.85778087,-14.8796 3.59999977,6 6.71878767,8.2898 6.71878767,8.2898 -1.2,-2.4 -1.9536602,-6.5421 -1.2,-8.4 1.8158376,2.8368 4.2000304,5.7999 7.2000004,8.4 -0.152374,-3.0842 -1.511916,-5.5019 0,-8.4 0.440094,2.7999 2.369041,5.5999 6,8.4 l 2.965923,-4.8 c 1.107952,5.3032 3.6,6 5.434077,11.3454 z"
       id="path2991"
       inkscape:connector-curvature="0"
       sodipodi:nodetypes="ccccccccccc" />
    <path
       style="fill:#fffe92;fill-opacity:1;stroke:#fce64c;stroke-width:1.20000005px;stroke-linecap:butt;stroke-linejoin:miter;stroke-opacity:1"
       d="m 36.269822,1051.718 19.261007,0.044 c 0,0 7.788789,-7.685 7.788789,-14.885 -3.6,6 -6.649796,8.2952 -6.649796,8.2952 1.2,-2.4 1.95366,-6.5421 1.2,-8.4 -1.815837,2.8368 -4.20003,5.7999 -7.2,8.4 0.152374,-3.0842 1.511916,-5.5019 0,-8.4 -0.440094,2.7999 -2.369041,5.5999 -6,8.4 l -3.086413,-4.8 c -1.107951,5.3032 -3.6,6 -5.313587,11.3454 z"
       id="path2991-1"
       inkscape:connector-curvature="0"
       sodipodi:nodetypes="ccccccccccc" />
  </g>
</svg>
